<?xml version="1.0" encoding="UTF-8"?>
<svg version="1.1" xmlns="http://www.w3.org/2000/svg" width="3713" height="2231">
<path d="M0 0 C1225.29 0 2450.58 0 3713 0 C3713 736.23 3713 1472.46 3713 2231 C2487.71 2231 1262.42 2231 0 2231 C0 1494.77 0 758.54 0 0 Z " fill="#ED1C24" transform="translate(0,0)"/>
<path d="M0 0 C491.78921874 -0.5252192 491.78921874 -0.5252192 679.62227213 -0.62614453 C682.25908771 -0.62756641 684.89590328 -0.62898877 687.53271885 -0.63041188 C688.19324301 -0.63076823 688.85376717 -0.63112457 689.53430721 -0.63149172 C736.16707131 -0.6566578 782.79983491 -0.68261988 829.43259766 -0.71015988 C833.89527141 -0.71279379 838.35794516 -0.71540926 842.82061893 -0.71800872 C911.82682597 -0.75820426 980.83300301 -0.80893329 1049.83917236 -0.89263916 C1050.57319225 -0.89352881 1051.30721214 -0.89441846 1052.06347505 -0.89533507 C1076.47241155 -0.92493572 1100.88134679 -0.95554329 1125.29028186 -0.98628973 C1147.34491341 -1.01406752 1169.39954535 -1.04148371 1191.45417881 -1.06770802 C1192.54097344 -1.0690005 1192.54097344 -1.0690005 1193.64972353 -1.0703191 C1239.03553126 -1.12420039 1284.42133196 -1.16241239 1329.8071661 -1.18481731 C1330.85887466 -1.1853396 1330.85887466 -1.1853396 1331.93182987 -1.18587243 C1362.72665535 -1.20115286 1393.52148119 -1.2131685 1424.31630933 -1.22145269 C1436.70602738 -1.22480078 1449.09574527 -1.22863229 1461.48546308 -1.23272857 C1463.5397413 -1.23340372 1465.59401952 -1.2340632 1467.64829775 -1.23472099 C1499.06120243 -1.24489167 1530.47405283 -1.26582672 1561.88691831 -1.31812119 C1562.5640544 -1.31924829 1563.2411905 -1.32037538 1563.93884587 -1.32153663 C1574.83113144 -1.33973301 1585.72341544 -1.35882951 1596.61569919 -1.37808137 C1641.28092284 -1.45702551 1685.94601179 -1.49658021 1730.61131427 -1.47711184 C1736.69144076 -1.47447183 1742.77156734 -1.47229585 1748.85169411 -1.47039986 C1750.04356201 -1.47001141 1751.23542991 -1.46962296 1752.46341501 -1.46922275 C1771.32877918 -1.4642761 1790.1937897 -1.50305614 1809.05905753 -1.56012821 C1827.61423887 -1.61536201 1846.1689623 -1.62418318 1864.72418709 -1.58381358 C1875.59976417 -1.56154724 1886.47388786 -1.57472517 1897.34929492 -1.64082102 C1904.58042062 -1.68119936 1911.81051144 -1.67403639 1919.04160605 -1.62891394 C1923.13628584 -1.60467577 1927.22814808 -1.59991575 1931.32260571 -1.65405818 C1950.36238737 -1.89011666 1964.63635274 0.16643748 1980.66201469 11.41415711 C1984.26713957 13.85949397 1988.08619496 15.85091314 1991.9375 17.875 C2015.53094575 30.8830922 2038.05953799 45.37973106 2057.29443359 64.32958984 C2058.78561193 65.79003104 2060.30650553 67.22000586 2061.83203125 68.64453125 C2083.76256809 89.46990718 2099.62972394 121.09911832 2101.17700195 151.47485352 C2101.56576848 174.65679999 2100.44252453 196.10623608 2092 218 C2091.60941406 219.03125 2091.21882813 220.0625 2090.81640625 221.125 C2076.50549225 257.16035065 2048.87456831 282.4467826 2017 303 C2016.34064453 303.42845215 2015.68128906 303.8569043 2015.00195312 304.29833984 C2002.16900964 312.61242254 1989.19904887 319.40096235 1974.79296875 324.6015625 C1971.53467371 325.78300845 1968.36301614 327.10932766 1965.1875 328.5 C1924.25613665 345.69666675 1876.20622466 352.32648825 1832 353 C1830.65543439 353.02594813 1829.31087074 353.05199812 1827.96630859 353.078125 C1746.74231006 354.54052715 1665.49688021 340.70097219 1582.3125 313.625 C1581.095625 313.22031494 1579.87875 312.81562988 1578.625 312.39868164 C1572.89687258 310.45214004 1567.31687213 308.37331863 1561.82202148 305.83984375 C1559.70505729 304.86404892 1557.55350599 304.01565864 1555.375 303.1875 C1550.29549269 301.18431402 1545.37191667 298.88898688 1540.44091797 296.54956055 C1537.55303343 295.18122947 1534.66308076 293.85898267 1531.71484375 292.625 C1500.86014051 279.51487669 1471.86053599 259.32395877 1447.48974609 236.38818359 C1445.95254548 234.95578066 1444.39594153 233.54769701 1442.83203125 232.14453125 C1437.94502054 227.75323862 1433.16696817 223.37157808 1428.94921875 218.31640625 C1427.38055474 216.45224241 1425.78148896 214.64298469 1424.14453125 212.83984375 C1415.4468503 203.17884986 1408.05537534 192.90724107 1401 182 C1400.29278809 180.91211182 1400.29278809 180.91211182 1399.57128906 179.80224609 C1393.66936127 170.64776548 1388.39320562 161.19423149 1383.3125 151.5625 C1382.73894775 150.50369629 1382.16539551 149.44489258 1381.57446289 148.35400391 C1378.95820697 143.39283572 1376.79158836 138.86901156 1375.6640625 133.35546875 C1373.99342747 125.73614857 1373.99342747 125.73614857 1369 120 C1357.58143713 115.93445223 1345.01842524 115.46147489 1333 115 C1331.87489014 114.94534576 1331.87489014 114.94534576 1330.72705078 114.8895874 C1328.55757048 114.78980787 1326.38979234 114.72256193 1324.21875 114.66796875 C1322.97029297 114.63340576 1321.72183594 114.59884277 1320.43554688 114.56323242 C1316.32121017 115.08629584 1314.21534506 116.43346089 1311 119 C1307.99342197 122.97173818 1306.62659188 127.57364255 1305.0625 132.25 C1303.23868413 137.57331187 1301.31696508 142.73193823 1298.9296875 147.83203125 C1297.35895042 151.49488452 1296.22489149 155.30424196 1295 159.09375 C1294.12085439 161.64876694 1293.13558159 164.05140219 1292 166.5 C1290.43528305 169.879058 1289.20703226 173.26858687 1288.0625 176.8125 C1286.71879908 180.97006872 1285.21733745 184.98237569 1283.5 189 C1281.80987987 192.95735445 1280.32231179 196.90509897 1279 201 C1277.71028089 204.98781148 1276.27529684 208.83505547 1274.625 212.6875 C1272.54133753 217.56429283 1270.73288987 222.49153911 1269 227.5 C1266.97450497 233.34499994 1264.7864592 239.06366642 1262.34658813 244.75119019 C1260.89392509 248.25591878 1259.55379385 251.79528912 1258.23583984 255.35205078 C1256.16388823 260.91013187 1254.06753031 266.4576786 1251.93212891 271.99169922 C1249.38816928 278.58493012 1246.8573332 285.18302289 1244.33727455 291.785429 C1242.82635991 295.7418302 1241.30923991 299.69563433 1239.77880859 303.64453125 C1238.27894157 307.51542804 1236.79556953 311.39228774 1235.32310104 315.27368546 C1234.76518875 316.73579201 1234.20151728 318.19571586 1233.63170242 319.65322495 C1229.11712866 330.97499227 1229.11712866 330.97499227 1229 343 C1232.50830729 350.93182517 1240.89706608 354.73329473 1248.54296875 357.93359375 C1251.4635325 359.20118342 1254.28529049 360.62319518 1257.125 362.0625 C1261.37102227 364.20429885 1265.60959486 366.17756768 1270 368 C1271.4600332 368.6419812 1272.91824916 369.28810505 1274.375 369.9375 C1275.13554688 370.27652344 1275.89609375 370.61554688 1276.6796875 370.96484375 C1277.44539063 371.30644531 1278.21109375 371.64804688 1279 372 C1281.21363722 372.9842643 1283.42757202 373.96785198 1285.6418457 374.95068359 C1287.08025509 375.5907378 1288.51768972 376.23299596 1289.95336914 376.87915039 C1345.93577273 401.99711674 1404.76450744 422.55626483 1464.06396484 438.22265625 C1466.64665433 438.90644831 1469.22447578 439.60512813 1471.80078125 440.3125 C1487.08477482 444.4750425 1502.5411321 447.9939579 1517.97845459 451.53582764 C1519.83060194 451.96110406 1521.68217629 452.38887397 1523.53369141 452.81689453 C1553.76394423 459.75209676 1584.58744996 465.31058177 1615.42285156 468.70117188 C1620.08427464 469.24167792 1624.72806189 469.91083188 1629.375 470.5625 C1642.63787599 472.39347697 1655.91662575 473.84996414 1669.25 475.0625 C1670.51444946 475.18153687 1670.51444946 475.18153687 1671.80444336 475.30297852 C1691.76835501 477.05297206 1711.78619173 477.20294048 1731.8125 477.1875 C1732.47791683 477.18738041 1733.14333366 477.18726082 1733.82891464 477.1871376 C1763.24896592 477.18049546 1792.60934337 476.32709015 1822 475 C1823.20563599 474.94672546 1824.41127197 474.89345093 1825.65344238 474.83856201 C1855.36225687 473.52451263 1884.94453486 471.74933786 1914.52365112 468.65643311 C1920.94550298 467.98956281 1927.37395722 467.47788198 1933.8125 467 C1945.04961977 466.13475978 1956.1719497 464.54315361 1967.32421875 462.94140625 C1972.62522368 462.18178613 1977.92679017 461.51754456 1983.25 460.9375 C1990.79105476 460.07801408 1998.21143881 458.81834923 2005.66894531 457.4296875 C2008.1496772 456.97240973 2010.63298329 456.53175687 2013.1171875 456.09375 C2033.42639615 452.49665579 2053.50637228 448.42663656 2073.34716797 442.75732422 C2075.93852055 442.01755101 2078.53313905 441.29051745 2081.12890625 440.56640625 C2126.22582139 427.92305617 2171.11617654 413.1785435 2213 392 C2214.06992188 391.47664063 2215.13984375 390.95328125 2216.2421875 390.4140625 C2232.55896435 382.40437992 2248.85522191 374.01024387 2264.15673828 364.17724609 C2266.41644089 362.73402941 2268.69083503 361.31509742 2270.96484375 359.89453125 C2302.18402955 340.31466028 2331.4902703 318.63769912 2358 293 C2358.9075 292.13375 2359.815 291.2675 2360.75 290.375 C2366.32249307 284.95729841 2371.1580101 279.06997449 2376 273 C2376.92385093 271.88771678 2377.84971872 270.7771064 2378.77734375 269.66796875 C2396.38979382 248.43106339 2409.84028443 224.06135124 2421.85888672 199.32275391 C2422.64400346 197.72463652 2423.44336426 196.13346362 2424.25439453 194.54833984 C2427.18821482 188.80932653 2429.6992002 183.01846423 2432 177 C2432.41088867 175.93910156 2432.82177734 174.87820313 2433.24511719 173.78515625 C2435.87971276 166.96168804 2438.46788437 160.12126799 2441.02461243 153.26831055 C2442.29119607 149.87537427 2443.58601336 146.49581201 2444.91015625 143.125 C2449.79061327 130.24626496 2451.2950418 116.71515392 2452.77087402 103.08630371 C2452.92993348 101.6379898 2453.09516839 100.19034604 2453.26525879 98.74328613 C2454.91662788 84.61153057 2455.3123495 70.60996899 2455.26074219 56.38818359 C2455.24999051 52.87189588 2455.26072396 49.35611644 2455.2734375 45.83984375 C2455.27962623 34.08393027 2454.92378005 22.560782 2453.42871094 10.89501953 C2453 7 2453 7 2453 0 C2868.8 0 3284.6 0 3713 0 C3713 293.7 3713 587.4 3713 890 C2487.71 890 1262.42 890 0 890 C0 596.3 0 302.6 0 0 Z " fill="#EC1C24" transform="translate(0,1341)"/>
<path d="M0 0 C0.90022385 0.03860641 1.80044769 0.07721283 2.72795105 0.11698914 C7.88850264 0.35957851 12.93690852 0.8643305 18.05859375 1.53515625 C19.79011595 1.6541591 21.52343009 1.75122606 23.2578125 1.81640625 C24.60649414 1.87248047 24.60649414 1.87248047 25.98242188 1.9296875 C27.83657155 2.00044657 29.69073854 2.07075347 31.54492188 2.140625 C32.88780273 2.19669922 32.88780273 2.19669922 34.2578125 2.25390625 C35.06049561 2.28419922 35.86317871 2.31449219 36.69018555 2.34570312 C39.20732614 2.54705361 41.58564717 3.0336997 44.05859375 3.53515625 C46.89362018 3.68824768 49.72188717 3.8092515 52.55859375 3.91015625 C60.37758975 4.25585566 68.0049372 5.12771895 75.73754883 6.31030273 C82.7249932 7.37196784 89.720998 8.20228706 96.74609375 8.97265625 C108.888492 10.32271587 120.94416596 12.09770194 133.00244141 14.05517578 C135.12919996 14.38919138 137.25950985 14.70103641 139.39208984 14.99560547 C140.50277832 15.15174316 141.6134668 15.30788086 142.7578125 15.46875 C143.74998779 15.6020874 144.74216309 15.7354248 145.7644043 15.87280273 C149.19070464 16.56171942 152.32614194 17.6064791 155.6231842 18.74372864 C159.89899501 20.13322583 164.26882469 21.11575507 168.64453125 22.13671875 C169.64689819 22.37439972 170.64926514 22.61208069 171.68200684 22.85696411 C173.82309867 23.36464972 175.96456851 23.87074341 178.10638428 24.37536621 C183.74940202 25.70638674 189.38849065 27.05380473 195.02734375 28.40234375 C196.14914032 28.6705896 197.27093689 28.93883545 198.42672729 29.21520996 C222.80047689 35.05789757 247.03014078 41.39531273 271.05859375 48.53515625 C272.72873535 49.02870605 272.72873535 49.02870605 274.43261719 49.53222656 C331.11777594 66.38633151 386.23900312 88.21733367 437.43945312 118.01416016 C439.24472228 119.06252209 441.05917701 120.09517127 442.88085938 121.11474609 C443.77998047 121.62859863 444.67910156 122.14245117 445.60546875 122.671875 C446.41338867 123.12651123 447.22130859 123.58114746 448.05371094 124.04956055 C450.31579047 125.72573614 451.10204614 126.90898679 452.05859375 129.53515625 C452.359375 132.92578125 452.359375 132.92578125 452.37109375 136.78515625 C452.38785156 138.0484375 452.40460937 139.31171875 452.421875 140.61328125 C451.72789306 148.10530136 449.07332102 153.04327454 444.12109375 158.66015625 C423.20059533 183.68589659 407.13206577 213.18701627 392.33251953 242.07714844 C391.24498371 244.17552149 390.13340242 246.25474018 388.9921875 248.32421875 C384.56585483 256.36369563 380.65794737 264.58112578 376.80859375 272.91015625 C376.25268555 274.10463379 375.69677734 275.29911133 375.12402344 276.52978516 C372.30896487 282.58852132 369.558304 288.66426034 366.90625 294.796875 C365.89477808 297.06391223 364.88306949 299.33084388 363.87109375 301.59765625 C363.43313477 302.65581543 362.99517578 303.71397461 362.54394531 304.80419922 C359.38356384 311.76601551 359.38356384 311.76601551 355.77783203 313.85913086 C350.43892531 315.61152187 344.90314481 316.05215809 339.30859375 315.97265625 C338.15025024 315.96020874 338.15025024 315.96020874 336.96850586 315.94750977 C323.20521203 315.54859429 311.55782825 310.65622382 301.37109375 301.41015625 C295.17898028 294.76209143 291.01002318 286.45204357 286.90234375 278.41845703 C267.19654577 239.98335374 234.83494078 213.25479742 197.05859375 193.53515625 C196.06666016 193.01727539 195.07472656 192.49939453 194.05273438 191.96582031 C176.72831396 182.98919231 159.08303269 174.92355707 141.13720703 167.27734375 C138.39179851 166.10715612 135.65090966 164.92723062 132.91357422 163.73828125 C112.12798869 154.61563479 112.12798869 154.61563479 90.42724609 148.09179688 C87.58342003 147.42348896 84.75340606 146.70687803 81.921875 145.98828125 C76.82950976 144.69809313 71.73335154 143.42510721 66.63110352 142.17456055 C65.08416619 141.79006507 63.53947452 141.39609656 61.99975586 140.98364258 C56.0300755 139.39465753 49.97634902 138.50537691 43.87109375 137.59765625 C42.72560059 137.42508301 41.58010742 137.25250977 40.39990234 137.07470703 C38.06297469 136.72398944 35.72573531 136.37534239 33.38818359 136.02880859 C30.38822931 135.58402875 27.38938615 135.13242167 24.390625 134.6796875 C-21.55985209 127.82921382 -67.92513996 127.95638662 -114.00390625 133.53515625 C-115.04402863 133.66053772 -115.04402863 133.66053772 -116.10516357 133.78845215 C-122.85246783 134.61377961 -129.50845408 135.52770627 -136.12231445 137.11083984 C-138.56514277 137.68064734 -141.01830142 138.01841311 -143.50390625 138.34765625 C-154.07622032 139.93534952 -164.50650208 142.22844167 -174.94140625 144.53515625 C-175.90433594 144.74092285 -176.86726563 144.94668945 -177.859375 145.15869141 C-194.33690462 148.73545172 -208.90042754 154.99927304 -223.94140625 162.53515625 C-224.9041748 163.01178711 -225.86694336 163.48841797 -226.85888672 163.97949219 C-239.08275797 170.06048941 -250.6898001 176.8023567 -261.94140625 184.53515625 C-262.94429687 185.22222656 -263.9471875 185.90929687 -264.98046875 186.6171875 C-285.87393079 201.39916136 -302.84774324 218.95468056 -314.94140625 241.53515625 C-315.33972656 242.22738281 -315.73804688 242.91960937 -316.1484375 243.6328125 C-328.28420311 265.63190952 -329.17269896 294.61645537 -322.58300781 318.36962891 C-320.74004947 324.58996395 -318.53803925 330.59062559 -315.94140625 336.53515625 C-315.65813477 337.18548828 -315.37486328 337.83582031 -315.08300781 338.50585938 C-301.35397084 369.30137878 -275.9934161 394.80635816 -249.94140625 415.53515625 C-249.42916504 415.94701172 -248.91692383 416.35886719 -248.38916016 416.78320312 C-240.14741759 423.4084782 -231.76096592 429.83381223 -223.07762567 435.87152865 C-219.6552969 438.26892574 -216.38216488 440.777013 -213.13877135 443.41014839 C-197.50747625 455.51840652 -183.21864882 456.70512455 -164.25157566 456.42208711 C-160.13099348 456.37768774 -156.01109834 456.42191816 -151.89053163 456.4540548 C-144.66127399 456.49853615 -137.433766 456.48791465 -130.204552 456.44035881 C-119.38291869 456.3694734 -108.56258607 456.38608606 -97.74083331 456.41915599 C-79.29394688 456.47302681 -60.84773666 456.45622824 -42.40088272 456.40061378 C-23.71606549 456.34457316 -5.03163356 456.32141366 13.653265 456.33817291 C14.83477039 456.33921324 16.01627577 456.34025356 17.23358435 456.34132541 C23.25841406 456.34678127 29.28324312 456.35277021 35.30807213 456.35894738 C78.88205555 456.40253368 122.45575184 456.37369421 166.0296917 456.30630302 C176.79491947 456.28969248 187.56014758 456.27334984 198.32537723 456.25799441 C198.99461953 456.25703962 199.66386184 456.25608483 200.35338422 456.2551011 C231.3809636 456.21116347 262.40851316 456.20577919 293.43611889 456.21020914 C295.46648068 456.21049709 297.49684247 456.21076694 299.52720427 456.21103214 C311.77065231 456.21264835 324.01410027 456.21466535 336.25754817 456.217145 C366.69184841 456.22329133 397.12614787 456.22463181 427.56044865 456.22271061 C428.59961395 456.22264859 428.59961395 456.22264859 429.6597725 456.22258531 C474.51212633 456.21986978 519.36444404 456.19737387 564.21678066 456.15827847 C564.93262328 456.15765467 565.64846589 456.15703088 566.38600071 456.15638819 C588.17576564 456.1373583 609.96552917 456.11686228 631.75529249 456.09607935 C655.86817222 456.07308712 679.98105214 456.05034506 704.09393311 456.02868652 C704.81903824 456.02803438 705.54414337 456.02738224 706.29122139 456.02671034 C775.1887689 455.96482825 844.08631028 455.94332882 912.98388249 455.93223941 C915.90295374 455.93176664 918.82202498 455.93128218 921.74109622 455.93079723 C948.60347109 455.92633558 975.46584602 455.92234744 1002.32822105 455.91895392 C1003.39968417 455.9188185 1003.39968417 455.9188185 1004.492793 455.91868035 C1006.65552801 455.91840713 1008.81826301 455.91813409 1010.98099802 455.91786106 C1069.40489794 455.91048294 1127.82879682 455.89897565 1186.25269548 455.88479238 C1188.31396556 455.88429302 1190.37523564 455.88379684 1192.43650573 455.88330161 C1259.40666226 455.86719847 1326.37681032 455.84378851 1446.47471619 455.7674408 C1449.89003279 455.7651456 1453.30534939 455.76285055 1456.72066599 455.76055693 C1551.49998359 455.69634919 1646.27928698 455.61330823 1741.05859375 455.53515625 C1741.05859375 605.68515625 1741.05859375 755.83515625 1741.05859375 910.53515625 C1325.25859375 910.53515625 909.45859375 910.53515625 481.05859375 910.53515625 C482.04859375 919.11515625 483.03859375 927.69515625 484.05859375 936.53515625 C484.54662066 951.18475685 484.54662066 951.18475685 484.52612305 956.09545898 C484.52220551 957.18849335 484.51828796 958.28152771 484.51425171 959.40768433 C484.50825958 960.52225006 484.50226746 961.6368158 484.49609375 962.78515625 C484.49404938 963.94250275 484.492005 965.09984924 484.48989868 966.29226685 C484.44620927 981.59523713 483.91961101 996.75715693 482.24609375 1011.97265625 C482.16350311 1012.7241394 482.08091248 1013.47562256 481.99581909 1014.24987793 C480.29451987 1029.21200592 477.43994478 1043.51452794 472.37109375 1057.72265625 C471.92721159 1058.98533502 471.48361228 1060.24811326 471.0402832 1061.51098633 C461.48191712 1088.57537943 461.48191712 1088.57537943 455.1640625 1100.3671875 C453.97439643 1102.70027821 452.97064116 1105.09185723 451.94946289 1107.50219727 C439.96044782 1134.86107052 423.9695389 1160.45694564 405.05859375 1183.53515625 C404.36926758 1184.38110352 404.36926758 1184.38110352 403.66601562 1185.24414062 C393.18185998 1198.03218583 381.57665373 1209.73845028 369.05859375 1220.53515625 C367.99885523 1221.4726659 366.94019058 1222.41139141 365.8828125 1223.3515625 C356.39001993 1231.70485822 346.33524274 1239.17885721 336.05859375 1246.53515625 C335.25115723 1247.11555664 334.4437207 1247.69595703 333.61181641 1248.29394531 C314.76225137 1261.80588086 295.24784526 1274.13158969 275.05859375 1285.53515625 C274.03169434 1286.11894043 273.00479492 1286.70272461 271.94677734 1287.30419922 C268.61215943 1289.19923698 265.2735999 1291.08713342 261.93359375 1292.97265625 C260.89033936 1293.56433594 259.84708496 1294.15601563 258.7722168 1294.765625 C253.62924374 1297.65267578 248.50112051 1300.33005884 243.07910156 1302.65161133 C239.9762689 1304.00844451 236.99920551 1305.59707482 233.99609375 1307.16015625 C196.00624942 1326.38879924 153.44150173 1340.47858669 112.21972656 1350.93188477 C110.54470852 1351.39945928 108.88693371 1351.9290231 107.23852539 1352.4831543 C84.14368951 1360.12351113 60.00346818 1364.56533155 36.05859375 1368.53515625 C33.9048162 1368.90548476 31.75116162 1369.27652947 29.59765625 1369.6484375 C13.7617025 1372.33127314 -2.15927203 1374.21164649 -18.1081543 1376.06762695 C-21.71551189 1376.50760465 -25.30877223 1377.00979915 -28.90625 1377.5234375 C-39.68711828 1378.97992941 -50.53762543 1379.73516087 -61.37890625 1380.59765625 C-64.61975026 1380.85784179 -67.86049373 1381.11917105 -71.10108948 1381.38243103 C-73.1010437 1381.54467499 -75.10114833 1381.70507974 -77.10142517 1381.86329651 C-81.05138278 1382.18186575 -84.98305156 1382.51846053 -88.91064453 1383.04882812 C-93.98485576 1383.71172147 -99.07983876 1383.9489003 -104.1875 1384.21875 C-105.83416656 1384.30851105 -105.83416656 1384.30851105 -107.51409912 1384.40008545 C-111.13548279 1384.59536264 -114.75712209 1384.78495814 -118.37890625 1384.97265625 C-119.63724274 1385.03796539 -120.89557922 1385.10327454 -122.19204712 1385.17056274 C-161.49608219 1387.19375315 -200.76924098 1388.71558241 -240.12890625 1388.72265625 C-241.42202728 1388.72365326 -242.71514832 1388.72465027 -244.04745483 1388.72567749 C-264.6164964 1388.72386737 -285.10289564 1388.37509173 -305.56640625 1386.16015625 C-307.44356323 1385.96389648 -307.44356323 1385.96389648 -309.35864258 1385.76367188 C-311.94234542 1385.49264163 -314.52576542 1385.21890067 -317.10888672 1384.94238281 C-320.87615408 1384.54208966 -324.64473553 1384.15770266 -328.4140625 1383.77734375 C-339.26633966 1382.66947831 -350.08666665 1381.52215134 -360.8458252 1379.70249939 C-366.44937022 1378.75933635 -372.06297628 1377.94293333 -377.69140625 1377.1640625 C-388.49971899 1375.63923805 -399.25624054 1373.87610665 -410.00390625 1371.97265625 C-410.95297852 1371.8051889 -411.90205078 1371.63772156 -412.87988281 1371.46517944 C-433.86313553 1367.73765075 -454.61087708 1363.08342082 -475.33984375 1358.1519165 C-478.11723631 1357.49347169 -480.89637819 1356.84277399 -483.67578125 1356.19287109 C-485.56643403 1355.74849058 -487.45705978 1355.30399504 -489.34765625 1354.859375 C-490.21990845 1354.65625198 -491.09216064 1354.45312897 -491.99084473 1354.24385071 C-496.39769555 1353.20240268 -500.65437488 1352.0054066 -504.94140625 1350.53515625 C-507.65714796 1349.75711506 -510.37448547 1348.99310992 -513.09765625 1348.2421875 C-550.21315225 1337.89768824 -586.95807535 1326.34402959 -622.94140625 1312.53515625 C-624.69759277 1311.86323242 -624.69759277 1311.86323242 -626.48925781 1311.17773438 C-639.43192145 1306.20656692 -652.28737549 1301.03810507 -665.06640625 1295.66015625 C-666.63890137 1294.99983398 -666.63890137 1294.99983398 -668.24316406 1294.32617188 C-673.86259833 1291.93732146 -679.35598823 1289.39957559 -684.78076172 1286.59521484 C-686.80564254 1285.60176484 -688.81681051 1284.78705339 -690.94140625 1284.03515625 C-694.93172685 1282.61690977 -698.60358831 1280.71985228 -702.3671875 1278.7890625 C-704.87721671 1277.56642308 -707.39752338 1276.53325946 -710.00390625 1275.53515625 C-714.12948167 1273.93898979 -717.83871108 1271.9679418 -721.65625 1269.74609375 C-724.05535963 1268.4747707 -726.44880697 1267.57297034 -729.00390625 1266.66015625 C-734.63679027 1264.49839421 -739.92661968 1261.01446857 -743.01081848 1255.68840027 C-747.04726934 1246.34864323 -741.61137042 1236.02841891 -738.2109375 1227.265625 C-737.61613684 1225.69734519 -737.0227947 1224.12851152 -736.43083191 1222.55915833 C-734.87400043 1218.44371007 -733.29751334 1214.33607302 -731.7166748 1210.22979736 C-730.12522608 1206.08551315 -728.55272205 1201.93406009 -726.97851562 1197.78320312 C-722.34353183 1185.57622982 -717.65789491 1173.38880477 -712.96560669 1161.20376587 C-711.62722064 1157.71652866 -710.3117028 1154.22148586 -709.00390625 1150.72265625 C-708.75721191 1150.06450928 -708.51051758 1149.4063623 -708.25634766 1148.72827148 C-706.95213645 1145.2474877 -705.6553538 1141.76409768 -704.3671875 1138.27734375 C-700.0548049 1126.63904132 -700.0548049 1126.63904132 -697.87890625 1121.97265625 C-695.79363967 1117.4646733 -694.32523164 1112.7665528 -692.79882812 1108.04931641 C-691.41188673 1103.81061014 -689.79692879 1099.80536696 -687.90625 1095.7734375 C-686.31763239 1092.08810191 -685.17478764 1088.25717992 -683.94140625 1084.44140625 C-682.80615034 1081.14206876 -681.40763492 1078.04046183 -679.94140625 1074.87890625 C-678.39093994 1071.24500084 -677.23929124 1067.49264372 -676.06640625 1063.72265625 C-675.15901827 1061.15172365 -674.15870216 1058.76790516 -673.0234375 1056.296875 C-671.56248925 1053.0730627 -670.33896186 1049.86488493 -669.265625 1046.4921875 C-668.99427734 1045.64591797 -668.72292969 1044.79964844 -668.44335938 1043.92773438 C-667.89807055 1042.2003326 -667.36690586 1040.46841183 -666.84960938 1038.73242188 C-664.8532182 1032.62168823 -662.31100875 1029.11680671 -656.94140625 1025.53515625 C-648.31736734 1021.22313679 -631.99854961 1024.93656181 -622.62817383 1026.12207031 C-621.02793639 1026.31623794 -619.42510526 1026.48998458 -617.82055664 1026.64453125 C-604.48900942 1027.93351154 -604.48900942 1027.93351154 -600.87890625 1031.66967773 C-599.55764457 1034.26654572 -598.71766937 1036.73092848 -597.94140625 1039.53515625 C-597.34648995 1040.93674678 -596.73042739 1042.32962146 -596.08984375 1043.7109375 C-595.80214111 1044.38237793 -595.51443848 1045.05381836 -595.21801758 1045.74560547 C-579.34235077 1082.75873605 -555.17759098 1120.87826751 -523.8515625 1146.9296875 C-522.51305142 1148.05469375 -521.21053884 1149.22328287 -519.9375 1150.421875 C-500.43932106 1168.76711814 -477.20042506 1182.5744279 -453.94140625 1195.53515625 C-453.26996582 1195.91220703 -452.59852539 1196.28925781 -451.90673828 1196.67773438 C-445.93478768 1200.02494838 -440.00823083 1203.07809986 -433.60546875 1205.5078125 C-427.31142318 1207.93498843 -421.08337479 1210.62206572 -414.95922852 1213.45068359 C-341.82211662 1246.99859432 -249.77550294 1261.63647962 -5.578125 1237.94140625 C-0.59172146 1236.0132588 4.23439072 1233.83314529 9.05859375 1231.53515625 C10.49436711 1230.90619988 11.93184253 1230.2811129 13.37109375 1229.66015625 C14.93595806 1228.95706162 16.4982562 1228.24824045 18.05859375 1227.53515625 C18.991875 1227.11363281 19.92515625 1226.69210937 20.88671875 1226.2578125 C38.48749278 1217.90382193 55.19759102 1207.12188045 70.05859375 1194.53515625 C71.305622 1193.50216026 72.5530317 1192.46962462 73.80078125 1191.4375 C75.05469601 1190.38828305 76.30733456 1189.33753872 77.55859375 1188.28515625 C78.40478271 1187.57806519 78.40478271 1187.57806519 79.26806641 1186.85668945 C82.83842677 1183.79889502 85.85355171 1180.54625055 88.77929688 1176.86425781 C89.20146484 1176.4256543 89.62363281 1175.98705078 90.05859375 1175.53515625 C90.71859375 1175.53515625 91.37859375 1175.53515625 92.05859375 1175.53515625 C92.29449219 1174.99375 92.53039063 1174.45234375 92.7734375 1173.89453125 C94.40782617 1170.89401224 96.46871624 1168.43941834 98.62109375 1165.78515625 C104.34983716 1158.53776132 108.79100302 1150.70740478 113.05859375 1142.53515625 C113.39600586 1141.90125977 113.73341797 1141.26736328 114.08105469 1140.61425781 C129.60181253 1110.72077129 133.59997047 1070.90272309 124.05859375 1038.53515625 C123.74510986 1037.44775146 123.74510986 1037.44775146 123.42529297 1036.33837891 C116.77156721 1013.98485081 104.14910606 995.15739526 88.05859375 978.53515625 C87.22328125 977.65988281 86.38796875 976.78460937 85.52734375 975.8828125 C60.47149142 950.15298946 27.15009248 933.00191415 -4.15600586 916.07470703 C-6.94140625 914.53515625 -6.94140625 914.53515625 -9.25427564 912.96247459 C-12.34995503 911.31814813 -14.23488362 911.15962404 -17.72089644 911.15851207 C-18.88630068 911.15086479 -20.05170492 911.14321751 -21.25242445 911.13533849 C-22.53201649 911.14220587 -23.81160853 911.14907325 -25.12997609 911.15614873 C-26.51126052 911.15284944 -27.89254232 911.14823514 -29.27381847 911.14242544 C-33.09229396 911.13021209 -36.9105462 911.13679001 -40.72902103 911.1462748 C-44.89005921 911.15330854 -49.05105961 911.14295161 -53.2120907 911.13478962 C-60.54050616 911.12283524 -67.86885762 911.12210711 -75.19727901 911.12855188 C-86.16812841 911.13814034 -97.13891895 911.13047108 -108.10976448 911.1193536 C-126.80426104 911.10091284 -145.49873687 911.09671666 -164.19324112 911.10016441 C-183.14675889 911.10360207 -202.10025886 911.10052687 -221.05377388 911.08943176 C-222.24940139 911.08873575 -223.44502889 911.08803973 -224.67688754 911.08732262 C-230.77303525 911.08374363 -236.8691829 911.080058 -242.96533053 911.07633468 C-287.12824101 911.0495799 -331.29114793 911.03734837 -375.45406532 911.03277016 C-386.37917591 911.03162983 -397.3042865 911.03043608 -408.22939706 911.02904534 C-408.9085223 911.02895893 -409.58764755 911.02887252 -410.28735235 911.02878349 C-441.73738016 911.02471625 -473.18740365 911.01296397 -504.63742855 910.99923898 C-506.69390488 910.99834191 -508.7503812 910.99744846 -510.80685752 910.99655593 C-523.2073132 910.99117065 -535.60776884 910.98570527 -548.00822443 910.98014738 C-578.8367239 910.96633354 -609.66522373 910.95348069 -640.49372387 910.94127941 C-641.54650189 910.94086203 -641.54650189 910.94086203 -642.62054814 910.94043621 C-688.08331877 910.92241983 -733.54608958 910.90835999 -779.0088625 910.89761066 C-779.73479129 910.89743899 -780.46072009 910.89726732 -781.20864673 910.89709044 C-803.3067876 910.89187287 -825.40492853 910.88694803 -847.50306947 910.88208045 C-871.95747033 910.87669256 -896.41187117 910.87125474 -920.86627197 910.86560059 C-921.96929182 910.86534581 -921.96929182 910.86534581 -923.09459489 910.86508588 C-992.92808604 910.848939 -1062.76157366 910.82473342 -1132.59506165 910.79844227 C-1135.55274565 910.79732934 -1138.51042966 910.79621874 -1141.46811367 910.79510824 C-1168.68523686 910.78488902 -1195.90236002 910.77457519 -1223.11948313 910.76414253 C-1224.20506924 910.76372643 -1224.20506924 910.76372643 -1225.31258639 910.76330191 C-1227.50382818 910.76246198 -1229.69506997 910.76162202 -1231.88631176 910.76078205 C-1291.08473746 910.73809005 -1350.28316344 910.71622328 -1409.48158964 910.69489109 C-1411.57031781 910.6941382 -1413.65904597 910.69338469 -1415.74777414 910.69263098 C-1483.59097862 910.6681527 -1551.43418337 910.64516088 -1792.09887695 910.5793457 C-1793.27374245 910.57904583 -1794.44860795 910.57874596 -1795.65907543 910.57843701 C-1854.41985224 910.56344617 -1913.18062916 910.5489752 -1971.94140625 910.53515625 C-1971.94140625 910.20515625 -1971.94140625 909.87515625 -1971.94140625 909.53515625 C-1327.45140625 909.20515625 -682.96140625 908.87515625 -18.94140625 908.53515625 C-19.60140625 908.20515625 -20.26140625 907.87515625 -20.94140625 907.53515625 C-20.94140625 906.87515625 -20.94140625 906.21515625 -20.94140625 905.53515625 C-22.39546875 905.47328125 -22.39546875 905.47328125 -23.87890625 905.41015625 C-28.12525946 904.79510906 -30.74076134 902.78093204 -34.18359375 900.3359375 C-39.457287 896.89235026 -45.20783367 894.30217923 -50.86376953 891.54980469 C-54.06804938 889.98494134 -57.25407334 888.38417058 -60.44140625 886.78515625 C-61.76816891 886.12227521 -63.09499466 885.45952044 -64.421875 884.796875 C-67.82309486 883.09665061 -71.22053543 881.38901781 -74.6171875 879.6796875 C-84.83529631 874.54433589 -95.07318188 869.47483112 -105.42553711 864.61523438 C-109.92105445 862.50241338 -114.38143081 860.33596545 -118.81640625 858.09765625 C-127.20298887 853.87027314 -135.69464866 849.86762521 -144.18164062 845.84667969 C-146.92265993 844.54406507 -149.65922323 843.23252907 -152.39453125 841.91796875 C-160.9656552 837.80376708 -169.549981 833.76690225 -178.2800293 830.00048828 C-183.19600189 827.87664861 -188.05166473 825.63963297 -192.8984375 823.36157227 C-201.22045137 819.45582218 -209.58980917 815.65617618 -217.97167969 811.88085938 C-220.94003354 810.53577828 -223.8977932 809.16915632 -226.85546875 807.80078125 C-241.89428621 800.92453978 -257.16340867 795.50163663 -272.90307617 790.50561523 C-275.9245992 789.54052451 -278.93433243 788.54426976 -281.94140625 787.53515625 C-281.94140625 786.87515625 -281.94140625 786.21515625 -281.94140625 785.53515625 C-283.55015625 785.43847656 -283.55015625 785.43847656 -285.19140625 785.33984375 C-291.18188126 784.58839772 -296.45146537 782.05860814 -301.94140625 779.66015625 C-304.02420707 778.7656861 -306.10753013 777.87243088 -308.19140625 776.98046875 C-309.17560547 776.55709229 -310.15980469 776.13371582 -311.17382812 775.69750977 C-313.59069311 774.68245206 -316.0143565 773.72917102 -318.47265625 772.8203125 C-321.77044843 771.59849535 -324.83013815 770.168572 -327.94140625 768.53515625 C-327.94140625 767.87515625 -327.94140625 767.21515625 -327.94140625 766.53515625 C-328.81023437 766.42300781 -329.6790625 766.31085937 -330.57421875 766.1953125 C-334.01501868 765.52072412 -336.65777495 764.47813376 -339.81640625 762.97265625 C-340.94175781 762.43898438 -342.06710937 761.9053125 -343.2265625 761.35546875 C-345.84936619 760.0797393 -348.45809531 758.77769246 -351.0625 757.46484375 C-351.75939941 757.11365479 -352.45629883 756.76246582 -353.17431641 756.40063477 C-354.52151965 755.71849252 -355.8664138 755.03176271 -357.20849609 754.33959961 C-360.42114573 752.70286598 -363.60375727 751.24663317 -366.99609375 750.01953125 C-370.77384708 748.64792606 -374.22386836 746.90509985 -377.75390625 744.97265625 C-379.06214007 744.26235752 -380.37075279 743.5527563 -381.6796875 742.84375 C-382.36756348 742.46976074 -383.05543945 742.09577148 -383.76416016 741.71044922 C-387.63902692 739.6187685 -391.54180522 737.58023155 -395.44140625 735.53515625 C-398.60864977 733.86958483 -401.77516894 732.20263959 -404.94140625 730.53515625 C-405.6173584 730.17921387 -406.29331055 729.82327148 -406.98974609 729.45654297 C-415.47890829 724.97919106 -423.87201501 720.3524231 -432.2265625 715.62890625 C-438.143416 712.28649269 -444.10696064 709.03082312 -450.1171875 705.859375 C-456.39769725 702.53092624 -462.44424682 699.01730575 -468.40625 695.1484375 C-471.34803764 693.27639082 -474.3575792 691.58626775 -477.41796875 689.91796875 C-480.67290185 688.13430572 -483.90260338 686.30738629 -487.12890625 684.47265625 C-487.7113208 684.14402588 -488.29373535 683.81539551 -488.89379883 683.47680664 C-495.20093603 679.88567871 -501.13533689 675.73375288 -507.1328125 671.65625 C-508.50320992 670.72584474 -509.87365402 669.79550826 -511.24414062 668.86523438 C-513.37959505 667.41544699 -515.51477632 665.9652648 -517.64916992 664.51391602 C-519.72621512 663.10179239 -521.80441439 661.69138136 -523.8828125 660.28125 C-524.5162709 659.84993271 -525.14972931 659.41861542 -525.80238342 658.97422791 C-528.45450602 657.17658061 -531.09592766 655.44733289 -533.88256836 653.86352539 C-534.56198486 653.42516357 -535.24140137 652.98680176 -535.94140625 652.53515625 C-535.94140625 651.87515625 -535.94140625 651.21515625 -535.94140625 650.53515625 C-536.49828125 650.43203125 -537.05515625 650.32890625 -537.62890625 650.22265625 C-540.41831635 649.39337217 -542.55531265 648.19216569 -544.94140625 646.53515625 C-544.94140625 645.87515625 -544.94140625 645.21515625 -544.94140625 644.53515625 C-545.70453125 644.24640625 -546.46765625 643.95765625 -547.25390625 643.66015625 C-549.94140625 642.53515625 -549.94140625 642.53515625 -552.94140625 640.53515625 C-552.94140625 639.87515625 -552.94140625 639.21515625 -552.94140625 638.53515625 C-553.93140625 638.53515625 -554.92140625 638.53515625 -555.94140625 638.53515625 C-555.94140625 637.87515625 -555.94140625 637.21515625 -555.94140625 636.53515625 C-556.60140625 636.32890625 -557.26140625 636.12265625 -557.94140625 635.91015625 C-564.23308371 633.02647075 -569.15283607 628.46054272 -573.94140625 623.53515625 C-574.93140625 622.87515625 -575.92140625 622.21515625 -576.94140625 621.53515625 C-576.94140625 620.87515625 -576.94140625 620.21515625 -576.94140625 619.53515625 C-577.67746094 619.28765625 -578.41351562 619.04015625 -579.171875 618.78515625 C-582.20494566 617.4162104 -583.93930834 615.9064204 -586.25390625 613.53515625 C-586.95128906 612.83390625 -587.64867187 612.13265625 -588.3671875 611.41015625 C-589.94140625 609.53515625 -589.94140625 609.53515625 -589.94140625 607.53515625 C-590.58078125 607.43203125 -591.22015625 607.32890625 -591.87890625 607.22265625 C-592.55953125 606.99578125 -593.24015625 606.76890625 -593.94140625 606.53515625 C-594.27140625 605.54515625 -594.60140625 604.55515625 -594.94140625 603.53515625 C-595.60140625 603.53515625 -596.26140625 603.53515625 -596.94140625 603.53515625 C-596.94140625 602.87515625 -596.94140625 602.21515625 -596.94140625 601.53515625 C-597.60140625 601.53515625 -598.26140625 601.53515625 -598.94140625 601.53515625 C-598.94140625 600.87515625 -598.94140625 600.21515625 -598.94140625 599.53515625 C-599.60140625 599.53515625 -600.26140625 599.53515625 -600.94140625 599.53515625 C-600.94140625 598.87515625 -600.94140625 598.21515625 -600.94140625 597.53515625 C-601.60140625 597.53515625 -602.26140625 597.53515625 -602.94140625 597.53515625 C-602.94140625 596.87515625 -602.94140625 596.21515625 -602.94140625 595.53515625 C-603.60140625 595.53515625 -604.26140625 595.53515625 -604.94140625 595.53515625 C-604.94140625 594.87515625 -604.94140625 594.21515625 -604.94140625 593.53515625 C-605.60140625 593.53515625 -606.26140625 593.53515625 -606.94140625 593.53515625 C-606.94140625 592.87515625 -606.94140625 592.21515625 -606.94140625 591.53515625 C-607.60140625 591.53515625 -608.26140625 591.53515625 -608.94140625 591.53515625 C-608.94140625 590.87515625 -608.94140625 590.21515625 -608.94140625 589.53515625 C-609.60140625 589.53515625 -610.26140625 589.53515625 -610.94140625 589.53515625 C-612.66796875 587.85546875 -612.66796875 587.85546875 -614.56640625 585.66015625 C-615.19804688 584.94085937 -615.8296875 584.2215625 -616.48046875 583.48046875 C-617.94140625 581.53515625 -617.94140625 581.53515625 -617.94140625 579.53515625 C-618.60140625 579.53515625 -619.26140625 579.53515625 -619.94140625 579.53515625 C-622.94140625 576.07361779 -622.94140625 576.07361779 -622.94140625 573.53515625 C-623.60140625 573.53515625 -624.26140625 573.53515625 -624.94140625 573.53515625 C-628.94140625 568.12339154 -628.94140625 568.12339154 -628.94140625 565.53515625 C-629.60140625 565.53515625 -630.26140625 565.53515625 -630.94140625 565.53515625 C-630.94140625 564.87515625 -630.94140625 564.21515625 -630.94140625 563.53515625 C-631.60140625 563.53515625 -632.26140625 563.53515625 -632.94140625 563.53515625 C-634.44921875 561.41796875 -634.44921875 561.41796875 -636.06640625 558.66015625 C-636.60523438 557.75523437 -637.1440625 556.8503125 -637.69921875 555.91796875 C-638.94140625 553.53515625 -638.94140625 553.53515625 -638.94140625 551.53515625 C-639.60140625 551.53515625 -640.26140625 551.53515625 -640.94140625 551.53515625 C-643.94140625 545.78515625 -643.94140625 545.78515625 -643.94140625 543.53515625 C-644.60140625 543.53515625 -645.26140625 543.53515625 -645.94140625 543.53515625 C-646.68583984 542.04628906 -646.68583984 542.04628906 -647.4453125 540.52734375 C-647.77063965 539.87685059 -648.0959668 539.22635742 -648.43115234 538.55615234 C-649.15204981 537.11402929 -649.87241931 535.67164219 -650.59228516 534.22900391 C-652.36977965 530.6685457 -654.15337208 527.11170544 -655.9609375 523.56640625 C-656.43067993 522.64045654 -656.43067993 522.64045654 -656.90991211 521.69580078 C-657.76933045 520.00288784 -658.63260138 518.31193231 -659.49609375 516.62109375 C-660.89743676 513.62903705 -661.95516086 510.68519002 -662.94140625 507.53515625 C-663.22242188 506.72691406 -663.5034375 505.91867187 -663.79296875 505.0859375 C-664.04820313 504.34730469 -664.3034375 503.60867188 -664.56640625 502.84765625 C-664.82679687 502.10128906 -665.0871875 501.35492187 -665.35546875 500.5859375 C-665.94140625 498.53515625 -665.94140625 498.53515625 -665.94140625 495.53515625 C-666.60140625 495.53515625 -667.26140625 495.53515625 -667.94140625 495.53515625 C-668.2559375 494.27703125 -668.57046875 493.01890625 -668.89453125 491.72265625 C-669.09973389 490.9032959 -669.30493652 490.08393555 -669.51635742 489.23974609 C-669.97239412 487.41263054 -670.42561141 485.5848093 -670.8762207 483.75634766 C-671.88657106 479.67016813 -672.90028822 475.59558056 -674.09375 471.55859375 C-684.14436991 436.13489942 -681.96307671 390.5427224 -675.94140625 354.53515625 C-675.73209473 353.27912598 -675.5227832 352.0230957 -675.30712891 350.72900391 C-672.52756481 334.38982484 -668.96282666 318.34149932 -663.94140625 302.53515625 C-663.63468994 301.54104736 -663.63468994 301.54104736 -663.32177734 300.52685547 C-649.92514639 257.15206114 -626.92857515 217.09138588 -598.94140625 181.53515625 C-598.16796875 180.53871094 -597.39453125 179.54226563 -596.59765625 178.515625 C-589.55393008 169.64896265 -581.63416623 161.68399318 -573.0234375 154.3359375 C-570.50987047 152.16191423 -568.07364396 149.91125137 -565.62890625 147.66015625 C-560.22443206 142.74297072 -554.6621535 138.07790546 -548.94140625 133.53515625 C-547.99249512 132.7774292 -547.99249512 132.7774292 -547.02441406 132.00439453 C-528.83885195 117.52012918 -509.90398447 104.44975811 -489.94140625 92.53515625 C-488.71164062 91.79749023 -488.71164062 91.79749023 -487.45703125 91.04492188 C-428.09797301 55.64688476 -362.41794449 34.31690232 -295.265625 19.34375 C-294.5520282 19.18460617 -293.8384314 19.02546234 -293.10321045 18.86149597 C-286.94368208 17.50496442 -280.75675517 16.31440769 -274.55078125 15.19140625 C-272.34980273 14.79122834 -270.15109225 14.377921 -267.95703125 13.94140625 C-263.31698905 13.02949044 -258.78672134 12.40589706 -254.06640625 12.09765625 C-248.5257284 11.72913975 -243.11167808 11.00004099 -237.62890625 10.16015625 C-226.66268909 8.49472849 -215.6518187 7.49830795 -204.60620117 6.53759766 C-203.93014832 6.47783752 -203.25409546 6.41807739 -202.55755615 6.35650635 C-200.70522496 6.19340909 -198.85250076 6.03479329 -196.99975586 5.87646484 C-194.52794826 5.60061372 -192.33419972 5.15889137 -189.94140625 4.53515625 C-187.12617853 4.33386887 -184.32225815 4.16512295 -181.50390625 4.03515625 C-180.00504485 3.96568113 -178.50633475 3.89284802 -177.0078125 3.81640625 C-176.34724854 3.78611328 -175.68668457 3.75582031 -175.00610352 3.72460938 C-172.86794175 3.56696972 -172.86794175 3.56696972 -170.51025391 3.03515625 C-167.89366706 2.5258643 -165.43575167 2.34620963 -162.7734375 2.25390625 C-161.79697266 2.21652344 -160.82050781 2.17914063 -159.81445312 2.140625 C-158.80447266 2.10582031 -157.79449219 2.07101562 -156.75390625 2.03515625 C-154.76031358 1.96511461 -152.766819 1.8922201 -150.7734375 1.81640625 C-149.89405518 1.78611328 -149.01467285 1.75582031 -148.10864258 1.72460938 C-145.48833041 1.56787136 -142.90860462 1.32962283 -140.29980469 1.05102539 C-134.66389445 0.47180155 -129.03509591 0.21397873 -123.375 0 C-122.28019821 -0.04315842 -121.18539642 -0.08631683 -120.05741882 -0.13078308 C-79.91013791 -1.68175646 -40.13833153 -1.79716362 0 0 Z " fill="#010000" transform="translate(1971.94140625,430.46484375)"/>
<path d="M0 0 C227.94934953 -0.26189853 227.94934953 -0.26189853 290.98661437 -0.32606167 C294.66286146 -0.32980476 298.33910855 -0.33354837 302.01535563 -0.33730115 C372.66705648 -0.40941675 443.31875978 -0.47239661 557.5203978 -0.54910703 C559.60891073 -0.55046195 561.69742366 -0.55181963 563.78593658 -0.55317821 C622.96770114 -0.59167108 682.14946701 -0.62763995 741.33123511 -0.66023006 C743.52173914 -0.66143633 745.71224316 -0.66264275 747.90274719 -0.66384928 C748.6262322 -0.66424774 749.34971722 -0.6646462 750.09512603 -0.66505674 C777.29871692 -0.68004597 804.50230748 -0.69561177 831.70589785 -0.71152174 C834.66158261 -0.7132498 837.61726736 -0.7149713 840.57295212 -0.71668682 C910.3283815 -0.75717901 980.08378112 -0.80802447 1049.83917236 -0.89263916 C1050.57319225 -0.89352881 1051.30721214 -0.89441846 1052.06347505 -0.89533507 C1076.47241155 -0.92493572 1100.88134679 -0.95554329 1125.29028186 -0.98628973 C1147.34491341 -1.01406752 1169.39954535 -1.04148371 1191.45417881 -1.06770802 C1192.54097344 -1.0690005 1192.54097344 -1.0690005 1193.64972353 -1.0703191 C1239.03553126 -1.12420039 1284.42133196 -1.16241239 1329.8071661 -1.18481731 C1330.85887466 -1.1853396 1330.85887466 -1.1853396 1331.93182987 -1.18587243 C1362.72665535 -1.20115286 1393.52148119 -1.2131685 1424.31630933 -1.22145269 C1436.70602738 -1.22480078 1449.09574527 -1.22863229 1461.48546308 -1.23272857 C1463.5397413 -1.23340372 1465.59401952 -1.2340632 1467.64829775 -1.23472099 C1499.06120243 -1.24489167 1530.47405283 -1.26582672 1561.88691831 -1.31812119 C1562.5640544 -1.31924829 1563.2411905 -1.32037538 1563.93884587 -1.32153663 C1574.83113144 -1.33973301 1585.72341544 -1.35882951 1596.61569919 -1.37808137 C1641.28092284 -1.45702551 1685.94601179 -1.49658021 1730.61131427 -1.47711184 C1736.69144076 -1.47447183 1742.77156734 -1.47229585 1748.85169411 -1.47039986 C1750.04356201 -1.47001141 1751.23542991 -1.46962296 1752.46341501 -1.46922275 C1771.32877918 -1.4642761 1790.1937897 -1.50305614 1809.05905753 -1.56012821 C1827.61423887 -1.61536201 1846.1689623 -1.62418318 1864.72418709 -1.58381358 C1875.59976417 -1.56154724 1886.47388786 -1.57472517 1897.34929492 -1.64082102 C1904.58042062 -1.68119936 1911.81051144 -1.67403639 1919.04160605 -1.62891394 C1923.13628584 -1.60467577 1927.22814808 -1.59991575 1931.32260571 -1.65405818 C1950.36238737 -1.89011666 1964.63635274 0.16643748 1980.66201469 11.41415711 C1984.26713957 13.85949397 1988.08619496 15.85091314 1991.9375 17.875 C2015.53094575 30.8830922 2038.05953799 45.37973106 2057.29443359 64.32958984 C2058.78561193 65.79003104 2060.30650553 67.22000586 2061.83203125 68.64453125 C2083.76256809 89.46990718 2099.62972394 121.09911832 2101.17700195 151.47485352 C2101.56576848 174.65679999 2100.44252453 196.10623608 2092 218 C2091.60941406 219.03125 2091.21882813 220.0625 2090.81640625 221.125 C2076.50549225 257.16035065 2048.87456831 282.4467826 2017 303 C2016.34064453 303.42845215 2015.68128906 303.8569043 2015.00195312 304.29833984 C2002.16900964 312.61242254 1989.19904887 319.40096235 1974.79296875 324.6015625 C1971.53467371 325.78300845 1968.36301614 327.10932766 1965.1875 328.5 C1924.25613665 345.69666675 1876.20622466 352.32648825 1832 353 C1830.65543439 353.02594813 1829.31087074 353.05199812 1827.96630859 353.078125 C1746.74231006 354.54052715 1665.49688021 340.70097219 1582.3125 313.625 C1581.095625 313.22031494 1579.87875 312.81562988 1578.625 312.39868164 C1572.89687258 310.45214004 1567.31687213 308.37331863 1561.82202148 305.83984375 C1559.70505729 304.86404892 1557.55350599 304.01565864 1555.375 303.1875 C1550.29549269 301.18431402 1545.37191667 298.88898688 1540.44091797 296.54956055 C1537.55303343 295.18122947 1534.66308076 293.85898267 1531.71484375 292.625 C1500.86014051 279.51487669 1471.86053599 259.32395877 1447.48974609 236.38818359 C1445.95254548 234.95578066 1444.39594153 233.54769701 1442.83203125 232.14453125 C1437.94502054 227.75323862 1433.16696817 223.37157808 1428.94921875 218.31640625 C1427.38055474 216.45224241 1425.78148896 214.64298469 1424.14453125 212.83984375 C1415.4468503 203.17884986 1408.05537534 192.90724107 1401 182 C1400.29278809 180.91211182 1400.29278809 180.91211182 1399.57128906 179.80224609 C1393.66936127 170.64776548 1388.39320562 161.19423149 1383.3125 151.5625 C1382.73894775 150.50369629 1382.16539551 149.44489258 1381.57446289 148.35400391 C1378.95820697 143.39283572 1376.79158836 138.86901156 1375.6640625 133.35546875 C1373.99342747 125.73614857 1373.99342747 125.73614857 1369 120 C1357.58143713 115.93445223 1345.01842524 115.46147489 1333 115 C1331.87489014 114.94534576 1331.87489014 114.94534576 1330.72705078 114.8895874 C1328.55757048 114.78980787 1326.38979234 114.72256193 1324.21875 114.66796875 C1322.97029297 114.63340576 1321.72183594 114.59884277 1320.43554688 114.56323242 C1316.32121017 115.08629584 1314.21534506 116.43346089 1311 119 C1307.99342197 122.97173818 1306.62659188 127.57364255 1305.0625 132.25 C1303.23868413 137.57331187 1301.31696508 142.73193823 1298.9296875 147.83203125 C1297.35895042 151.49488452 1296.22489149 155.30424196 1295 159.09375 C1294.12085439 161.64876694 1293.13558159 164.05140219 1292 166.5 C1290.43528305 169.879058 1289.20703226 173.26858687 1288.0625 176.8125 C1286.71879908 180.97006872 1285.21733745 184.98237569 1283.5 189 C1281.80987987 192.95735445 1280.32231179 196.90509897 1279 201 C1277.71028089 204.98781148 1276.27529684 208.83505547 1274.625 212.6875 C1272.54133753 217.56429283 1270.73288987 222.49153911 1269 227.5 C1266.97450497 233.34499994 1264.7864592 239.06366642 1262.34658813 244.75119019 C1260.89392509 248.25591878 1259.55379385 251.79528912 1258.23583984 255.35205078 C1256.16388823 260.91013187 1254.06753031 266.4576786 1251.93212891 271.99169922 C1249.38816928 278.58493012 1246.8573332 285.18302289 1244.33727455 291.785429 C1242.82635991 295.7418302 1241.30923991 299.69563433 1239.77880859 303.64453125 C1238.27894157 307.51542804 1236.79556953 311.39228774 1235.32310104 315.27368546 C1234.76518875 316.73579201 1234.20151728 318.19571586 1233.63170242 319.65322495 C1229.11712866 330.97499227 1229.11712866 330.97499227 1229 343 C1232.50830729 350.93182517 1240.89706608 354.73329473 1248.54296875 357.93359375 C1251.4635325 359.20118342 1254.28529049 360.62319518 1257.125 362.0625 C1261.37102227 364.20429885 1265.60959486 366.17756768 1270 368 C1271.4600332 368.6419812 1272.91824916 369.28810505 1274.375 369.9375 C1275.13554688 370.27652344 1275.89609375 370.61554688 1276.6796875 370.96484375 C1277.44539063 371.30644531 1278.21109375 371.64804688 1279 372 C1281.21363722 372.9842643 1283.42757202 373.96785198 1285.6418457 374.95068359 C1287.08025509 375.5907378 1288.51768972 376.23299596 1289.95336914 376.87915039 C1347.93321017 402.89331918 1408.71516173 423.38825618 1470 440 C1470 440.33 1470 440.66 1470 441 C984.9 441 499.8 441 0 441 C0 295.47 0 149.94 0 0 Z " fill="#FEFEFE" transform="translate(0,1341)"/>
<path d="M0 0 C522.39 0 1044.78 0 1583 0 C1583 143.88 1583 287.76 1583 436 C1357.92812494 436.36262873 1357.92812494 436.36262873 1295.68387751 436.45147001 C1292.05387962 436.45665275 1288.42388173 436.4618362 1284.79388386 436.46703236 C1212.30768899 436.57078271 1139.82148989 436.66002601 1032.48723447 436.76030205 C1030.42474213 436.76217808 1028.36224978 436.76405794 1026.29975744 436.76593906 C967.85442183 436.81923772 909.40908368 436.86904071 850.96374118 436.9141647 C848.80045699 436.91583491 846.6371728 436.91750535 844.47388862 436.91917593 C843.75939384 436.91972764 843.04489905 436.92027936 842.30875292 436.92084779 C815.44336812 436.94160198 788.57798398 436.96315464 761.71260021 436.98518395 C758.79367457 436.98757665 755.87474892 436.98996026 752.95582326 436.9923356 C684.07383742 437.04839686 615.19190935 437.11878859 546.30999756 437.23596191 C545.58525868 437.23719374 544.8605198 437.23842556 544.11381914 437.23969471 C520.01375223 437.28067982 495.91368776 437.32305969 471.81362361 437.36563193 C450.03798805 437.40409386 428.26235172 437.44205487 406.48671246 437.47836494 C405.77133829 437.47955801 405.05596411 437.48075107 404.31891194 437.48198029 C359.50142518 437.55659376 314.6839521 437.60949766 269.86641407 437.64051628 C268.82775559 437.64123944 268.82775559 437.64123944 267.7681141 437.64197721 C237.35427527 437.66313551 206.94043575 437.67977221 176.52659175 437.69124219 C164.28982234 437.69587796 152.05305324 437.70118312 139.81628427 437.70685494 C137.78737922 437.70778976 135.75847417 437.70870289 133.72956911 437.70961367 C102.71043864 437.72369354 71.69141354 437.75266433 40.67235923 437.82509089 C39.6696491 437.82743177 39.6696491 437.82743177 38.6466822 437.82981995 C27.89397826 437.85501444 17.14127739 437.88145591 6.38857699 437.90811266 C-37.7189017 438.01745757 -81.82603953 438.07217749 -125.93365914 438.04523178 C-131.94007187 438.04157646 -137.94648476 438.03856353 -143.95289803 438.03593826 C-145.71900033 438.03513149 -145.71900033 438.03513149 -147.52078147 438.03430842 C-166.14530453 438.02746343 -184.76914 438.081117 -203.39347582 438.16017752 C-221.71898218 438.23672077 -240.04359966 438.2488211 -258.36919063 438.19297264 C-269.10585609 438.16217983 -279.83969755 438.18025327 -290.57603157 438.27190603 C-297.72025703 438.32793168 -304.86247791 438.31778092 -312.00664424 438.25541931 C-316.04938951 438.22193974 -320.08667467 438.21497344 -324.1289829 438.29023441 C-346.17624622 438.67520587 -360.25670179 433.82062842 -377.38216769 420.08648845 C-380.22729403 417.81884005 -383.15531816 415.73680119 -386.16703365 413.69906525 C-393.53236831 408.70158064 -400.4138366 402.99267369 -407.30712891 397.37255859 C-408.79182109 396.16878884 -410.29125561 394.98324908 -411.79296875 393.80078125 C-434.4609373 375.79672151 -454.74836472 354.31305095 -469 329 C-469.33483398 328.40815918 -469.66966797 327.81631836 -470.01464844 327.20654297 C-479.70995945 309.80505283 -485.42627268 290.28610607 -485.3125 270.3125 C-485.30686035 269.26376709 -485.3012207 268.21503418 -485.29541016 267.13452148 C-484.7956575 234.89552711 -469.76672563 209.80323637 -448 187 C-447.29875 186.2575 -446.5975 185.515 -445.875 184.75 C-419.81252546 157.84680048 -377.78056023 134.51532143 -341.5 125.9375 C-340.45231445 125.68419922 -339.40462891 125.43089844 -338.32519531 125.16992188 C-328.59416376 122.84724019 -318.84476143 120.77701617 -309 119 C-307.08960938 118.65171143 -307.08960938 118.65171143 -305.140625 118.29638672 C-283.82306358 114.43666544 -262.6127038 111.5494969 -241 110 C-240.03674805 109.92942383 -239.07349609 109.85884766 -238.08105469 109.78613281 C-197.28246523 106.94601001 -156.0546939 109.46177575 -115.91015625 117.1015625 C-111.89005272 117.85816149 -107.87366898 118.43867739 -103.8125 118.9375 C-96.77929625 119.89468158 -90.07083765 121.71175701 -83.2421875 123.59765625 C-79.59804386 124.59636507 -75.94517345 125.48390295 -72.2578125 126.30859375 C-58.71203573 129.38082033 -46.58100846 133.83033752 -33.98779297 139.64697266 C-28.77162845 142.00912201 -23.47350444 144.17493258 -18.1875 146.375 C21.3612948 163.01583004 60.98080031 180.8633761 93 210 C93.77706299 210.70697021 93.77706299 210.70697021 94.56982422 211.42822266 C110.54318202 226.18036004 122.69557039 244.50547003 132.50634766 263.80322266 C139.77912667 278.08529721 148.93730239 288.25917238 164.5625 293.4375 C175.96323258 296.35979999 188.65667308 296.192092 200 293 C200.26321045 292.15590576 200.5264209 291.31181152 200.79760742 290.44213867 C202.06318397 286.81912064 203.59189865 283.38556029 205.23828125 279.92578125 C205.55522446 279.25288559 205.87216766 278.57998993 206.19871521 277.88670349 C207.23301816 275.69356807 208.27243407 273.50290764 209.3125 271.3125 C210.03754494 269.78097657 210.76247861 268.24940046 211.48730469 266.71777344 C212.95533655 263.61810634 214.42610745 260.51975877 215.89892578 257.42236328 C217.213747 254.65695735 218.52529027 251.89006892 219.83154297 249.12060547 C226.65861235 234.65460962 233.79588503 220.45165188 241.61083984 206.49316406 C242.94105403 204.10579197 244.24962432 201.70799491 245.55078125 199.3046875 C257.01782034 178.20524464 270.0563442 157.85229527 285.31787109 139.28881836 C291.00872793 132.20565585 293.4381456 126.46913451 293.25 117.25 C293.23453125 115.97640625 293.2190625 114.7028125 293.203125 113.390625 C293.10128497 109.56049318 293.10128497 109.56049318 292 106 C290.34352338 105.30840226 288.67490535 104.64568901 287 104 C285.46058943 103.18036157 283.93743079 102.32965351 282.4296875 101.453125 C281.54772705 100.94523438 280.6657666 100.43734375 279.75708008 99.9140625 C278.80599365 99.36492187 277.85490723 98.81578125 276.875 98.25 C195.02571243 51.58733993 106.61203481 26.73816468 15.74609375 4.58984375 C14.73328339 4.34241928 13.72047302 4.09499481 12.67697144 3.84007263 C11.2676384 3.49759239 11.2676384 3.49759239 9.82983398 3.14819336 C8.60610329 2.85035194 8.60610329 2.85035194 7.35765076 2.54649353 C4.91375905 1.98000971 2.46226787 1.47969587 0 1 C0 0.67 0 0.34 0 0 Z " fill="#FEFEFE" transform="translate(2130,450)"/>
<path d="M0 0 C427.35 0 854.7 0 1295 0 C1296.75818555 5.86061849 1298.29049009 11.1007205 1299.39453125 17.0078125 C1300.35787236 21.7685821 1301.52317805 26.48224664 1302.67944336 31.19946289 C1303.40380736 34.20490502 1304 36.89617376 1304 40 C1304.66 40 1305.32 40 1306 40 C1306.19335938 40.77085937 1306.38671875 41.54171875 1306.5859375 42.3359375 C1306.84632812 43.33882812 1307.10671875 44.34171875 1307.375 45.375 C1307.63023438 46.37273438 1307.88546875 47.37046875 1308.1484375 48.3984375 C1308.82404319 51.12541015 1308.82404319 51.12541015 1311 53 C1311.37125 54.19625 1311.7425 55.3925 1312.125 56.625 C1314.73923672 64.8967131 1319.16112605 72.52926594 1323.14501953 80.20654297 C1323.51095215 80.92084473 1323.87688477 81.63514648 1324.25390625 82.37109375 C1324.58849854 83.01876709 1324.92309082 83.66644043 1325.26782227 84.33374023 C1326 86 1326 86 1326 88 C1326.66 88 1327.32 88 1328 88 C1331 93.75 1331 93.75 1331 96 C1331.66 96 1332.32 96 1333 96 C1334.5078125 98.1171875 1334.5078125 98.1171875 1336.125 100.875 C1336.66382813 101.77992188 1337.20265625 102.68484375 1337.7578125 103.6171875 C1339 106 1339 106 1339 108 C1339.66 108 1340.32 108 1341 108 C1341 108.66 1341 109.32 1341 110 C1341.66 110 1342.32 110 1343 110 C1347 115.41176471 1347 115.41176471 1347 118 C1347.66 118 1348.32 118 1349 118 C1352 121.46153846 1352 121.46153846 1352 124 C1352.66 124 1353.32 124 1354 124 C1355.7265625 125.6796875 1355.7265625 125.6796875 1357.625 127.875 C1358.25664063 128.59429688 1358.88828125 129.31359375 1359.5390625 130.0546875 C1361 132 1361 132 1361 134 C1361.66 134 1362.32 134 1363 134 C1363 134.66 1363 135.32 1363 136 C1363.66 136 1364.32 136 1365 136 C1365 136.66 1365 137.32 1365 138 C1365.66 138 1366.32 138 1367 138 C1367 138.66 1367 139.32 1367 140 C1367.66 140 1368.32 140 1369 140 C1369 140.66 1369 141.32 1369 142 C1369.66 142 1370.32 142 1371 142 C1371 142.66 1371 143.32 1371 144 C1371.66 144 1372.32 144 1373 144 C1373 144.66 1373 145.32 1373 146 C1373.66 146 1374.32 146 1375 146 C1375 146.66 1375 147.32 1375 148 C1375.66 148 1376.32 148 1377 148 C1377.66 148.99 1378.32 149.98 1379 151 C1379.99 151.33 1380.98 151.66 1382 152 C1383.61328125 153.70703125 1383.61328125 153.70703125 1385.3125 155.8125 C1388.23740182 159.27425089 1391.1341784 161.59459989 1395 164 C1396.35308313 165.31328657 1397.68870078 166.64499081 1399 168 C1399.7425 168.53625 1400.485 169.0725 1401.25 169.625 C1401.8275 170.07875 1402.405 170.5325 1403 171 C1403 171.66 1403 172.32 1403 173 C1403.66 173.20625 1404.32 173.4125 1405 173.625 C1409.07180186 175.49124252 1412.68796998 177.97561527 1416 181 C1416 181.66 1416 182.32 1416 183 C1416.99 183 1417.98 183 1419 183 C1419 183.66 1419 184.32 1419 185 C1420.1446875 185.433125 1420.1446875 185.433125 1421.3125 185.875 C1424 187 1424 187 1427 189 C1427 189.66 1427 190.32 1427 191 C1427.8353125 191.1546875 1427.8353125 191.1546875 1428.6875 191.3125 C1431.4769101 192.14178408 1433.6139064 193.34299056 1436 195 C1436 195.66 1436 196.32 1436 197 C1436.56847656 197.09925781 1437.13695312 197.19851563 1437.72265625 197.30078125 C1440.48358822 198.14847734 1442.14606613 199.42283254 1444.4375 201.1875 C1450.0383581 205.36735766 1455.80195931 209.26149432 1461.625 213.125 C1462.50728271 213.71047607 1463.38956543 214.29595215 1464.29858398 214.89916992 C1466.02702007 216.0448457 1467.75625459 217.18931794 1469.48632812 218.33251953 C1471.15067117 219.43658548 1472.81090953 220.54686635 1474.46679688 221.66357422 C1478.31510207 224.25758741 1482.12585978 226.73310782 1486.25 228.875 C1491.62112335 231.74110364 1496.7681176 234.90851766 1501.9375 238.12109375 C1505.89109046 240.54670219 1509.91909573 242.79760722 1514 245 C1520.32078828 248.42925592 1526.61398563 251.90050575 1532.875 255.4375 C1538.76692295 258.76480117 1544.69870282 262.00436291 1550.66796875 265.19140625 C1553.73058619 266.85376484 1556.76188771 268.56038489 1559.78930664 270.28540039 C1566.45310519 274.08007462 1573.17758574 277.66331181 1580.06079102 281.04394531 C1584.68503001 283.32003988 1589.22407464 285.72255963 1593.75 288.1875 C1599.0841873 291.07898688 1604.48720063 293.54631849 1610.12109375 295.796875 C1613.07551152 297.03155705 1615.8995817 298.41718176 1618.75 299.875 C1623.62003852 302.35839713 1628.55425211 304.62632425 1633.5625 306.8125 C1634.25375977 307.11462402 1634.94501953 307.41674805 1635.65722656 307.72802734 C1638.41623773 308.92305224 1641.14606531 310.04868844 1644 311 C1644 311.66 1644 312.32 1644 313 C1645.2375 313.391875 1646.475 313.78375 1647.75 314.1875 C1652.3788091 315.73282112 1656.84251008 317.56645775 1661.3359375 319.46484375 C1666.02250543 321.42840579 1670.72619302 323.34667791 1675.4375 325.25 C1676.30221924 325.60344482 1677.16693848 325.95688965 1678.05786133 326.32104492 C1678.88310303 326.65338135 1679.70834473 326.98571777 1680.55859375 327.328125 C1681.29392334 327.6262207 1682.02925293 327.92431641 1682.78686523 328.23144531 C1685.17032668 329.0591493 1687.51845014 329.55837518 1690 330 C1690 330.66 1690 331.32 1690 332 C1690.83160645 332.1139209 1691.66321289 332.2278418 1692.52001953 332.34521484 C1696.37026217 333.06966768 1699.98478535 334.20592849 1703.6796875 335.4765625 C1704.41011261 335.72489838 1705.14053772 335.97323425 1705.89309692 336.22909546 C1707.4386655 336.75629052 1708.98340128 337.28593265 1710.52734375 337.81787109 C1712.83054356 338.60971579 1715.13761942 339.38933271 1717.4453125 340.16796875 C1730.86236257 344.74107169 1743.64389237 350.39093562 1756.46243286 356.42355347 C1760.94062542 358.53079631 1765.45890173 360.53248354 1770 362.5 C1775.83464431 365.02796968 1781.60792627 367.66214734 1787.35766602 370.37719727 C1791.84735458 372.48774467 1796.38028604 374.47775948 1800.9375 376.4375 C1807.04263874 379.07301934 1812.99677819 381.93640137 1818.92504883 384.94677734 C1823.78441324 387.40996219 1828.68722518 389.76083916 1833.625 392.0625 C1838.74570838 394.45158628 1843.82967533 396.89137104 1848.875 399.4375 C1854.33538605 402.19274067 1859.84099311 404.83355409 1865.375 407.4375 C1877.55688337 413.18035322 1889.55137263 419.20541818 1901.42089844 425.56762695 C1906.83067579 428.44118502 1912.32630188 431.09380113 1917.875 433.6875 C1933.99074297 441.22436052 1933.99074297 441.22436052 1941.25 446.25 C1944.50120708 448.31894996 1947.26959595 449.10470303 1951 450 C1951 450.66 1951 451.32 1951 452 C1952.32 452.66 1953.64 453.32 1955 454 C1309.85 454 664.7 454 0 454 C0 304.18 0 154.36 0 0 Z " fill="#EC1B23" transform="translate(0,886)"/>
<path d="M0 0 C636.57 0 1273.14 0 1929 0 C1929 149.49 1929 298.98 1929 453 C1512.87 453 1096.74 453 668 453 C665.525 442.11 665.525 442.11 663 431 C661.93950966 427.28361203 660.89257935 423.69324524 659.625 420.0625 C659.33246338 419.205354 659.03992676 418.34820801 658.73852539 417.46508789 C656.02048419 409.69562699 652.69340405 402.3526889 649 395 C648.47277344 393.90945313 647.94554688 392.81890625 647.40234375 391.6953125 C644.01173453 384.74066135 640.24385116 378.31335031 635.91015625 371.9140625 C635.17667969 370.82867188 634.44320312 369.74328125 633.6875 368.625 C632.99011719 367.60664062 632.29273437 366.58828125 631.57421875 365.5390625 C630 363 630 363 630 361 C629.34 361 628.68 361 628 361 C625 357.53846154 625 357.53846154 625 355 C624.34 355 623.68 355 623 355 C622.10180996 353.61816917 621.20720618 352.23390905 620.328125 350.83984375 C618.21850812 347.91740389 615.61203068 345.53499245 613.03125 343.03125 C610.5960126 340.5960126 608.40163224 338.01485071 606.2265625 335.34765625 C605.02079718 333.86020853 605.02079718 333.86020853 603 333 C602.61714844 332.31164063 602.23429687 331.62328125 601.83984375 330.9140625 C599.27360331 326.84948635 595.98070059 323.73093232 592.5625 320.375 C591.89412109 319.70726562 591.22574219 319.03953125 590.53710938 318.3515625 C586.84227295 314.66749856 586.84227295 314.66749856 582.77709961 311.41259766 C582.19065674 310.94644043 581.60421387 310.4802832 581 310 C581 309.34 581 308.68 581 308 C580.34 308 579.68 308 579 308 C579 307.34 579 306.68 579 306 C578.34 306 577.68 306 577 306 C577 305.34 577 304.68 577 304 C576.34 304 575.68 304 575 304 C575 303.34 575 302.68 575 302 C574.27167969 301.76410156 573.54335937 301.52820312 572.79296875 301.28515625 C569.55367293 299.79462713 567.75430654 298.02025972 565.3125 295.4375 C562.46343331 292.30453441 562.46343331 292.30453441 559 290 C559 289.34 559 288.68 559 288 C558.1028125 287.566875 558.1028125 287.566875 557.1875 287.125 C555 286 555 286 552 284 C552 283.34 552 282.68 552 282 C551.46375 281.76410156 550.9275 281.52820312 550.375 281.28515625 C547.33600007 279.6406974 544.70548513 277.56782232 542 275.4375 C540.83502611 274.53204918 539.66965283 273.62711203 538.50390625 272.72265625 C537.91754395 272.26648926 537.33118164 271.81032227 536.72705078 271.34033203 C529.31096777 265.58484776 521.78514183 260.11462806 513.93359375 254.96875 C511.05534689 253.03714359 508.27797008 251.01001713 505.5 248.9375 C500.83166937 245.50332574 495.99955914 242.5709262 490.9609375 239.71484375 C488.11297709 238.06543132 485.37331997 236.30937781 482.625 234.5 C477.35757048 231.10018297 471.84711854 228.36684886 466.22265625 225.625 C462.9655871 223.98264755 459.95159449 222.15578292 456.8984375 220.171875 C453.97108925 218.36486991 450.90240004 216.88226831 447.8125 215.375 C445.8036515 214.39289629 443.80462671 213.39059401 441.8125 212.375 C434.43898876 208.62121246 426.99720499 205.18847452 419.375 201.96875 C415.6675649 200.35109144 412.07067908 198.54321958 408.4609375 196.71875 C401.61477364 193.26052208 394.6687675 190.06215229 387.67285156 186.92016602 C375.73072296 181.55418095 363.84244889 176.08221427 352 170.5 C340.64036903 165.14859326 329.24432071 159.88297732 317.8125 154.6875 C317.09827881 154.36249512 316.38405762 154.03749023 315.64819336 153.70263672 C313.62681317 152.78333694 311.60461843 151.86585948 309.58203125 150.94921875 C308.42936768 150.42674561 307.2767041 149.90427246 306.08911133 149.3659668 C304.13369197 148.50130456 302.15512644 147.68584229 300.15112305 146.94067383 C298 146 298 146 297 144 C295.00708223 143.21655744 292.97948177 142.51983635 290.9375 141.875 C289.83277344 141.52179688 288.72804688 141.16859375 287.58984375 140.8046875 C286.73519531 140.53914063 285.88054688 140.27359375 285 140 C285 139.34 285 138.68 285 138 C283.96939453 137.69255859 283.96939453 137.69255859 282.91796875 137.37890625 C281.56638672 136.97478516 281.56638672 136.97478516 280.1875 136.5625 C279.29417969 136.29566406 278.40085937 136.02882813 277.48046875 135.75390625 C275.64526945 135.19612127 273.81966274 134.60655425 272 134 C272 133.34 272 132.68 272 132 C271.443125 131.82984375 270.88625 131.6596875 270.3125 131.484375 C265.69130501 130.01683335 261.41529433 128.32904529 257.12280273 126.078125 C255.13677938 125.06946725 253.13875882 124.15261944 251.09765625 123.26171875 C244.84236929 120.5008306 238.64052261 117.62600759 232.4375 114.75 C231.81949524 114.46375763 231.20149048 114.17751526 230.5647583 113.88259888 C222.12615556 109.97071174 213.75063691 105.96539951 205.4921875 101.68359375 C202.81330408 100.39209626 200.1924902 99.26030889 197.4296875 98.1796875 C190.9131465 95.61869549 184.59096569 92.65076174 178.25 89.6875 C176.98893642 89.10057707 175.72786868 88.51366307 174.46679688 87.92675781 C167.38392645 84.62305145 160.36809912 81.22312127 153.40625 77.671875 C148.98613833 75.50237065 144.4977489 73.50242531 140 71.5 C133.20351738 68.47302169 126.51136277 65.31636346 119.87890625 61.94140625 C114.83689893 59.39385138 109.72598748 56.98904721 104.625 54.5625 C97.28073899 51.06633502 89.97169644 47.51623106 82.71313477 43.84570312 C78.03772787 41.4914501 73.31131367 39.26427673 68.5625 37.0625 C62.03086349 34.02624835 55.65453211 30.76074676 49.30712891 27.35791016 C41.94782746 23.41633544 34.4816315 19.70256983 27 16 C17.904392 11.49711786 8.86083252 6.95605887 0 2 C0 1.34 0 0.68 0 0 Z " fill="#EC1C24" transform="translate(1784,887)"/>
<path d="M0 0 C553.08 0 1106.16 0 1676 0 C1672.26371026 1.86814487 1669.30770148 2.73193099 1665.26171875 3.62890625 C1663.88629411 3.93950282 1662.51097313 4.25055865 1661.13574219 4.56201172 C1660.41173218 4.72441345 1659.68772217 4.88681519 1658.94177246 5.05413818 C1611.97661627 15.64526793 1566.42534115 31.20073624 1523 52 C1522.03465332 52.45810059 1521.06930664 52.91620117 1520.07470703 53.38818359 C1482.61409376 71.25229504 1447.75998611 94.32520313 1416 121 C1415.38205566 121.51884766 1414.76411133 122.03769531 1414.12744141 122.57226562 C1393.85063424 139.57502201 1393.85063424 139.57502201 1376 159 C1375.6066748 159.49209961 1375.21334961 159.98419922 1374.80810547 160.49121094 C1344.44492928 198.84350717 1318.52501415 243.99122779 1306.62548828 291.64086914 C1306.14556903 293.45096272 1305.62596153 295.25057205 1305.08935547 297.04467773 C1302.57824724 305.4466811 1300.73238333 313.80096468 1299.24462891 322.42895508 C1298.87909501 324.53886307 1298.49702546 326.64529079 1298.11328125 328.75195312 C1294.76726407 347.52346066 1293.6844899 366.11317785 1293.79418945 385.1652832 C1293.81246493 388.43123246 1293.81469782 391.69689537 1293.81445312 394.96289062 C1293.81937136 397.11979402 1293.82520101 399.27669556 1293.83203125 401.43359375 C1293.83314407 402.36973007 1293.8342569 403.30586639 1293.83540344 404.27037048 C1293.90650571 414.87594416 1294.5171612 425.37754643 1295 436 C867.65 436 440.3 436 0 436 C0 292.12 0 148.24 0 0 Z " fill="#FEFEFE" transform="translate(0,450)"/>
<path d="M0 0 C415.8 0 831.6 0 1260 0 C1260 145.53 1260 291.06 1260 441 C722.43 441 184.86 441 -369 441 C-366.6545544 438.6545544 -365.3020439 438.37799807 -362.12109375 437.546875 C-361.07566406 437.26481201 -360.03023437 436.98274902 -358.953125 436.69213867 C-357.21289062 436.22578003 -357.21289062 436.22578003 -355.4375 435.75 C-315.87890604 424.77687629 -276.65086956 410.53250184 -240 392 C-238.93007812 391.47664063 -237.86015625 390.95328125 -236.7578125 390.4140625 C-220.44103565 382.40437992 -204.14477809 374.01024387 -188.84326172 364.17724609 C-186.58355911 362.73402941 -184.30916497 361.31509742 -182.03515625 359.89453125 C-150.81597045 340.31466028 -121.5097297 318.63769912 -95 293 C-94.0925 292.13375 -93.185 291.2675 -92.25 290.375 C-86.67750693 284.95729841 -81.8419899 279.06997449 -77 273 C-76.07614907 271.88771678 -75.15028128 270.7771064 -74.22265625 269.66796875 C-56.61020618 248.43106339 -43.15971557 224.06135124 -31.14111328 199.32275391 C-30.35599654 197.72463652 -29.55663574 196.13346362 -28.74560547 194.54833984 C-25.81178518 188.80932653 -23.3007998 183.01846423 -21 177 C-20.58911133 175.93910156 -20.17822266 174.87820313 -19.75488281 173.78515625 C-17.12028724 166.96168804 -14.53211563 160.12126799 -11.97538757 153.26831055 C-10.70880393 149.87537427 -9.41398664 146.49581201 -8.08984375 143.125 C-3.20938673 130.24626496 -1.7049582 116.71515392 -0.22912598 103.08630371 C-0.07006652 101.6379898 0.09516839 100.19034604 0.26525879 98.74328613 C1.91662788 84.61153057 2.3123495 70.60996899 2.26074219 56.38818359 C2.24999051 52.87189588 2.26072396 49.35611644 2.2734375 45.83984375 C2.27962623 34.08393027 1.92378005 22.560782 0.42871094 10.89501953 C0 7 0 7 0 0 Z " fill="#FEFEFE" transform="translate(2453,1341)"/>
<path d="M0 0 C0.99 0 1.98 0 3 0 C3 0.66 3 1.32 3 2 C4.32 2.66 5.64 3.32 7 4 C-638.15 4 -1283.3 4 -1948 4 C-1948 3.34 -1948 2.68 -1948 2 C-1305.16 1.67 -662.32 1.34 0 1 C0 0.67 0 0.34 0 0 Z " fill="#EB5B5E" transform="translate(1948,1336)"/>
<path d="M0 0 C2.48088355 0.28062943 4.95909185 0.57390599 7.4375 0.875 C8.49807617 0.99294922 8.49807617 0.99294922 9.58007812 1.11328125 C11.39673432 1.33927676 13.20062522 1.66300727 15 2 C15.33 2.66 15.66 3.32 16 4 C11.71 4 7.42 4 3 4 C3 3.34 3 2.68 3 2 C2.01 2 1.02 2 0 2 C0 1.34 0 0.68 0 0 Z " fill="#130808" transform="translate(2106,445)"/>
<path d="M0 0 C1.65 0 3.3 0 5 0 C5 0.99 5 1.98 5 3 C2.36 3 -0.28 3 -3 3 C-2.01 2.67 -1.02 2.34 0 2 C0 1.34 0 0.68 0 0 Z " fill="#290607" transform="translate(1626,1809)"/>
<path d="M0 0 C1.32 0 2.64 0 4 0 C4.33 1.65 4.66 3.3 5 5 C3.125 4.6875 3.125 4.6875 1 4 C0.34 3.01 -0.32 2.02 -1 1 C-0.67 0.67 -0.34 0.34 0 0 Z " fill="#1E0405" transform="translate(2021,1791)"/>
</svg>
